<svg width="400" height="220" viewBox="0 0 400 220" fill="none" xmlns="http://www.w3.org/2000/svg">
<rect width="400" height="220" rx="5" fill="#0055FF"/>
<path d="M90 65C90 48.4315 103.431 35 120 35H139C155.569 35 169 48.4315 169 65V155C169 171.569 155.569 185 139 185H120C103.431 185 90 171.569 90 155V65Z" fill="white"/>
<path d="M195.5 65C195.5 48.4315 208.931 35 225.5 35H280C296.569 35 310 48.4315 310 65V155C310 171.569 296.569 185 280 185H225.5C208.931 185 195.5 171.569 195.5 155V65Z" fill="white"/>
</svg>
